HIERARCHY
ROOT Hips
{
	OFFSET 0.000000 71.427986 0.000000
	CHANNELS 6 Xposition Yposition Zposition Xrotation Yrotation Zrotation
	JOINT Pelvis
	{
		OFFSET 0.000000 0.000000 0.000000
		CHANNELS 3 Xrotation Yrotation Zrotation
		JOINT LeftUpLeg
		{
			OFFSET 6.797100 -2.508499 -1.318700
			CHANNELS 3 Xrotation Yrotation Zrotation
			JOINT LeftLeg
			{
				OFFSET 0.069008 -29.241863 0.690200
				CHANNELS 3 Xrotation Yrotation Zrotation
				JOINT LeftFoot
				{
					OFFSET -0.069008 -29.568123 -0.266800
					CHANNELS 3 Xrotation Yrotation Zrotation
					JOINT LeftToeBase
					{
						OFFSET 3.145500 -8.631000 16.059900
						CHANNELS 3 Xrotation Yrotation Zrotation
						End Site
						{
							OFFSET 0.000000 18.501587 0.000000
						}
					}
				}
			}
			JOINT Left_ShortSleeve
			{
				OFFSET 0.265923 -10.480953 1.153800
				CHANNELS 3 Xrotation Yrotation Zrotation
				End Site
				{
					OFFSET 1.725763 19.823879 0.000000
				}
			}
		}
		JOINT RightUpLeg
		{
			OFFSET -6.797100 -2.508499 -1.318700
			CHANNELS 3 Xrotation Yrotation Zrotation
			JOINT RightLeg
			{
				OFFSET -0.082453 -29.241932 0.688000
				CHANNELS 3 Xrotation Yrotation Zrotation
				JOINT RightFoot
				{
					OFFSET 0.082453 -29.568058 -0.264600
					CHANNELS 3 Xrotation Yrotation Zrotation
					JOINT RightToeBase
					{
						OFFSET -3.115300 -8.682800 16.113400
						CHANNELS 3 Xrotation Yrotation Zrotation
						End Site
						{
							OFFSET 0.000000 18.567114 0.000000
						}
					}
				}
			}
			JOINT Right_ShortSleeve
			{
				OFFSET -0.265923 -10.480953 1.153800
				CHANNELS 3 Xrotation Yrotation Zrotation
				End Site
				{
					OFFSET -1.725766 19.823910 0.000000
				}
			}
		}
	}
	JOINT Spine
	{
		OFFSET 0.000000 13.368103 0.470500
		CHANNELS 3 Xrotation Yrotation Zrotation
		JOINT Spine1
		{
			OFFSET 0.147000 13.837402 0.538800
			CHANNELS 3 Xrotation Yrotation Zrotation
			JOINT Spine2
			{
				OFFSET 0.168000 16.242897 -1.435500
				CHANNELS 3 Xrotation Yrotation Zrotation
				JOINT Neck
				{
					OFFSET 0.217200 18.631500 -1.679100
					CHANNELS 3 Xrotation Yrotation Zrotation
					JOINT Head
					{
						OFFSET 0.000000 6.599396 1.385900
						CHANNELS 3 Xrotation Yrotation Zrotation
						JOINT Hat
						{
							OFFSET -0.532200 27.220596 -10.096100
							CHANNELS 3 Xrotation Yrotation Zrotation
							End Site
							{
								OFFSET 0.000000 22.029861 0.000000
							}
						}
						JOINT HairD
						{
							OFFSET -10.777400 17.437393 -1.325900
							CHANNELS 3 Xrotation Yrotation Zrotation
							JOINT HairD1
							{
								OFFSET -3.290299 -11.051193 1.062200
								CHANNELS 3 Xrotation Yrotation Zrotation
								End Site
								{
									OFFSET 0.000000 11.579437 0.000000
								}
							}
						}
						JOINT HairB
						{
							OFFSET -10.777400 17.437393 1.467900
							CHANNELS 3 Xrotation Yrotation Zrotation
							JOINT HairB1
							{
								OFFSET -1.561200 -12.956299 3.590200
								CHANNELS 3 Xrotation Yrotation Zrotation
								End Site
								{
									OFFSET 0.000000 13.534866 0.000000
								}
							}
						}
						JOINT HairA
						{
							OFFSET 9.713100 17.437393 1.467900
							CHANNELS 3 Xrotation Yrotation Zrotation
							JOINT HairA1
							{
								OFFSET 1.561200 -12.956299 3.590200
								CHANNELS 3 Xrotation Yrotation Zrotation
								End Site
								{
									OFFSET 0.000000 13.534866 0.000000
								}
							}
						}
						JOINT HairC
						{
							OFFSET 9.713100 17.437393 -1.325900
							CHANNELS 3 Xrotation Yrotation Zrotation
							JOINT HairC1
							{
								OFFSET 3.290300 -11.051193 1.062200
								CHANNELS 3 Xrotation Yrotation Zrotation
								End Site
								{
									OFFSET 0.000000 11.579437 0.000000
								}
							}
						}
					}
				}
				JOINT LeftShoulder
				{
					OFFSET 5.101800 15.108002 -2.763700
					CHANNELS 3 Xrotation Yrotation Zrotation
					JOINT LeftArm
					{
						OFFSET 9.825497 2.506317 -1.597400
						CHANNELS 3 Xrotation Yrotation Zrotation
						JOINT LeftForeArm
						{
							OFFSET 21.966244 0.000000 0.000000
							CHANNELS 3 Xrotation Yrotation Zrotation
							JOINT LeftHand
							{
								OFFSET 33.879036 0.000000 0.000000
								CHANNELS 3 Xrotation Yrotation Zrotation
								JOINT LeftHandThumb1
								{
									OFFSET 6.715286 -2.359680 3.363841
									CHANNELS 3 Xrotation Yrotation Zrotation
									JOINT LeftHandThumb2
									{
										OFFSET 2.507072 -1.447464 1.447461
										CHANNELS 3 Xrotation Yrotation Zrotation
										JOINT LeftHandThumb3
										{
											OFFSET 2.898338 -1.673355 1.673357
											CHANNELS 3 Xrotation Yrotation Zrotation
											End Site
											{
												OFFSET -0.295959 3.727692 -0.131651
											}
										}
									}
								}
								JOINT LeftHandIndex1
								{
									OFFSET 14.190811 -0.254547 3.840278
									CHANNELS 3 Xrotation Yrotation Zrotation
									JOINT LeftHandIndex2
									{
										OFFSET 3.551727 0.000000 -0.000000
										CHANNELS 3 Xrotation Yrotation Zrotation
										JOINT LeftHandIndex3
										{
											OFFSET 2.894196 0.000000 0.000000
											CHANNELS 3 Xrotation Yrotation Zrotation
											End Site
											{
												OFFSET -1.000603 2.690872 0.366626
											}
										}
									}
								}
								JOINT LeftHandMiddle1
								{
									OFFSET 13.776489 0.000000 0.000000
									CHANNELS 3 Xrotation Yrotation Zrotation
									JOINT LeftHandMiddle2
									{
										OFFSET 3.438232 0.000000 0.000000
										CHANNELS 3 Xrotation Yrotation Zrotation
										JOINT LeftHandMiddle3
										{
											OFFSET 3.691551 0.000000 0.000000
											CHANNELS 3 Xrotation Yrotation Zrotation
											End Site
											{
												OFFSET -1.082298 3.499527 0.457670
											}
										}
									}
								}
								JOINT LeftHandRing1
								{
									OFFSET 13.966164 -0.268127 -3.067488
									CHANNELS 3 Xrotation Yrotation Zrotation
									JOINT LeftHandRing2
									{
										OFFSET 3.162567 0.000000 0.000000
										CHANNELS 3 Xrotation Yrotation Zrotation
										JOINT LeftHandRing3
										{
											OFFSET 3.324348 0.000000 0.000000
											CHANNELS 3 Xrotation Yrotation Zrotation
											End Site
											{
												OFFSET -0.861900 3.184998 0.405154
											}
										}
									}
								}
								JOINT LeftHandPinky1
								{
									OFFSET 13.131393 -0.168503 -5.746925
									CHANNELS 3 Xrotation Yrotation Zrotation
									JOINT LeftHandPinky2
									{
										OFFSET 2.849182 0.000000 0.000000
										CHANNELS 3 Xrotation Yrotation Zrotation
										JOINT LeftHandPinky3
										{
											OFFSET 2.805038 0.000000 0.000000
											CHANNELS 3 Xrotation Yrotation Zrotation
											End Site
											{
												OFFSET -0.882500 2.642609 0.325652
											}
										}
									}
								}
							}
							JOINT Left_Sleeve
							{
								OFFSET 6.592125 -0.646545 0.805568
								CHANNELS 3 Xrotation Yrotation Zrotation
								End Site
								{
									OFFSET -0.000179 20.275787 -0.000000
								}
							}
						}
					}
				}
				JOINT RightShoulder
				{
					OFFSET -5.731700 15.108002 -2.763700
					CHANNELS 3 Xrotation Yrotation Zrotation
					JOINT RightArm
					{
						OFFSET -9.825497 2.506317 -1.597400
						CHANNELS 3 Xrotation Yrotation Zrotation
						JOINT RightForeArm
						{
							OFFSET -21.966242 0.000000 0.000000
							CHANNELS 3 Xrotation Yrotation Zrotation
							JOINT RightHand
							{
								OFFSET -33.879032 0.000000 0.000000
								CHANNELS 3 Xrotation Yrotation Zrotation
								JOINT RightHandThumb1
								{
									OFFSET -6.715286 -2.359680 3.363841
									CHANNELS 3 Xrotation Yrotation Zrotation
									JOINT RightHandThumb2
									{
										OFFSET -2.507072 -1.447464 1.447461
										CHANNELS 3 Xrotation Yrotation Zrotation
										JOINT RightHandThumb3
										{
											OFFSET -2.898338 -1.673355 1.673357
											CHANNELS 3 Xrotation Yrotation Zrotation
											End Site
											{
												OFFSET 0.295959 3.727692 -0.131651
											}
										}
									}
								}
								JOINT RightHandIndex1
								{
									OFFSET -14.190811 -0.254547 3.840278
									CHANNELS 3 Xrotation Yrotation Zrotation
									JOINT RightHandIndex2
									{
										OFFSET -3.551727 0.000000 -0.000000
										CHANNELS 3 Xrotation Yrotation Zrotation
										JOINT RightHandIndex3
										{
											OFFSET -2.894196 0.000000 0.000000
											CHANNELS 3 Xrotation Yrotation Zrotation
											End Site
											{
												OFFSET 1.000603 2.690872 0.366626
											}
										}
									}
								}
								JOINT RightHandMiddle1
								{
									OFFSET -13.776489 0.000000 0.000000
									CHANNELS 3 Xrotation Yrotation Zrotation
									JOINT RightHandMiddle2
									{
										OFFSET -3.438232 0.000000 0.000000
										CHANNELS 3 Xrotation Yrotation Zrotation
										JOINT RightHandMiddle3
										{
											OFFSET -3.691551 0.000000 0.000000
											CHANNELS 3 Xrotation Yrotation Zrotation
											End Site
											{
												OFFSET 1.082298 3.499527 0.457670
											}
										}
									}
								}
								JOINT RightHandRing1
								{
									OFFSET -13.966164 -0.268127 -3.067488
									CHANNELS 3 Xrotation Yrotation Zrotation
									JOINT RightHandRing2
									{
										OFFSET -3.162567 0.000000 0.000000
										CHANNELS 3 Xrotation Yrotation Zrotation
										JOINT RightHandRing3
										{
											OFFSET -3.324348 0.000000 0.000000
											CHANNELS 3 Xrotation Yrotation Zrotation
											End Site
											{
												OFFSET 0.861900 3.184998 0.405154
											}
										}
									}
								}
								JOINT RightHandPinky1
								{
									OFFSET -13.131393 -0.168503 -5.746925
									CHANNELS 3 Xrotation Yrotation Zrotation
									JOINT RightHandPinky2
									{
										OFFSET -2.849182 0.000000 0.000000
										CHANNELS 3 Xrotation Yrotation Zrotation
										JOINT RightHandPinky3
										{
											OFFSET -2.805038 0.000000 0.000000
											CHANNELS 3 Xrotation Yrotation Zrotation
											End Site
											{
												OFFSET 0.882500 2.642609 0.325652
											}
										}
									}
								}
							}
							JOINT Right_Sleeve
							{
								OFFSET -6.592125 -0.646545 0.805568
								CHANNELS 3 Xrotation Yrotation Zrotation
								End Site
								{
									OFFSET 0.000179 20.275787 -0.000000
								}
							}
						}
					}
				}
				JOINT Bind_Right_JacketString
				{
					OFFSET -3.534800 11.969597 7.200700
					CHANNELS 3 Xrotation Yrotation Zrotation
					JOINT Bind_Right_JacketString1
					{
						OFFSET -0.319900 -6.102600 2.794100
						CHANNELS 3 Xrotation Yrotation Zrotation
						End Site
						{
							OFFSET 0.000000 6.719452 0.000000
						}
					}
				}
				JOINT Bind_Left_JacketString
				{
					OFFSET 2.904800 11.969597 7.200700
					CHANNELS 3 Xrotation Yrotation Zrotation
					JOINT Bind_Left_JacketString1
					{
						OFFSET 0.364800 -5.904503 3.186800
						CHANNELS 3 Xrotation Yrotation Zrotation
						End Site
						{
							OFFSET 0.000000 6.719513 0.000000
						}
					}
				}
				JOINT HairE
				{
					OFFSET 5.915200 17.612701 -11.592200
					CHANNELS 3 Xrotation Yrotation Zrotation
					JOINT HairE1
					{
						OFFSET 0.289200 -7.171898 -1.284500
						CHANNELS 3 Xrotation Yrotation Zrotation
						End Site
						{
							OFFSET 0.000000 7.291756 0.000000
						}
					}
				}
				JOINT HairF
				{
					OFFSET -0.864800 17.612701 -11.592200
					CHANNELS 3 Xrotation Yrotation Zrotation
					JOINT HairF1
					{
						OFFSET 0.000000 -14.087097 -2.127501
						CHANNELS 3 Xrotation Yrotation Zrotation
						End Site
						{
							OFFSET 0.000000 14.246841 0.000000
						}
					}
				}
				JOINT HairG
				{
					OFFSET -8.087700 17.612701 -11.592200
					CHANNELS 3 Xrotation Yrotation Zrotation
					JOINT HairG1
					{
						OFFSET -0.293600 -6.081398 -0.910100
						CHANNELS 3 Xrotation Yrotation Zrotation
						End Site
						{
							OFFSET 0.000000 6.156120 0.000000
						}
					}
				}
			}
		}
	}
	JOINT Pouch
	{
		OFFSET 0.000000 4.394501 10.847300
		CHANNELS 3 Xrotation Yrotation Zrotation
		End Site
		{
			OFFSET 0.000000 21.880577 0.000000
		}
	}
	JOINT Bag
	{
		OFFSET -13.229000 4.813004 -0.593300
		CHANNELS 3 Xrotation Yrotation Zrotation
		End Site
		{
			OFFSET 0.000000 21.880577 0.000000
		}
	}
	JOINT OccupyGuyFacialAnim_Joint
	{
		OFFSET 1.000000 -70.206398 -1.655000
		CHANNELS 3 Xrotation Yrotation Zrotation
		End Site
		{
			OFFSET 0.000000 21.880577 0.000000
		}
	}
}
MOTION
Frames: 4
Frame Time: 0.016667
-0.005156 41.864540 1.187781 0.144287 0.170040 0.952864 -0.000000 -0.000000 0.000000 -87.443278 -5.014165 11.052219 82.704636 6.682692 0.254018 5.741473 -7.106148 -5.765637 0.000000 -0.000001 0.000000 -0.000000 -0.000001 0.000001 -88.201416 6.563995 -7.385252 82.639087 -6.348156 -1.873749 6.766826 0.060921 6.760580 0.000000 -0.000001 -0.000000 0.000000 -0.000000 -0.000000 10.430385 0.009626 -1.558609 -0.199257 0.213327 -0.355463 -0.199585 0.248526 -0.300880 -1.001766 -1.284342 0.469464 -8.883498 -4.327062 -5.321560 -0.000000 -0.000000 -0.000001 -0.000000 -0.000000 -0.000001 -0.000000 -0.000000 -0.000001 -0.000000 -0.000000 -0.000000 -0.000000 -0.000000 -0.000000 -0.000000 -0.000000 -0.000000 -0.000000 -0.000000 -0.000000 -0.000000 -0.000000 -0.000001 -0.000000 -0.000000 -0.000001 0.823520 -15.262025 -7.868752 4.746713 -21.216442 -54.862234 0.000000 -62.197485 -0.000002 31.062952 4.315235 41.770217 6.610608 1.798267 20.801505 2.716398 20.172569 -24.389164 -0.000000 -0.000002 -0.000000 -0.235307 2.798422 -26.913110 0.396820 2.121269 -21.189315 0.000001 0.000001 0.000003 1.299146 7.334339 -16.511082 0.329949 1.940076 -19.302246 0.000000 0.000000 0.000001 1.797289 9.807929 -14.184138 0.205913 1.541088 -15.220194 -0.000001 0.000001 -0.000001 2.041306 10.867595 -13.918915 0.168517 1.396405 -13.761337 -0.000001 -0.000001 0.000003 0.000000 -0.000001 -0.000000 3.171092 -4.378725 8.782886 -3.950254 37.253389 63.733643 -0.000017 55.137945 0.000019 43.537316 4.741007 -36.277945 -9.383520 -1.613328 -17.604708 3.557076 -24.337021 34.656844 0.000002 0.000000 -0.000000 2.957834 1.012869 13.529996 0.472457 -2.045683 26.006739 0.000000 -0.000001 0.000000 0.105533 -3.664947 2.525410 0.584994 -2.261669 29.000437 0.000001 0.000000 -0.000004 0.456447 -7.644265 4.306132 0.107463 -0.995719 12.318848 -0.000002 0.000001 -0.000003 -11.162310 -10.227895 7.169813 0.029117 -0.520511 6.403082 -0.000000 0.000001 0.000001 0.000003 0.000000 -0.000001 0.000000 0.000000 -0.000000 0.000000 0.000000 0.000000 0.000000 0.000000 -0.000000 0.000000 0.000000 -0.000000 0.000000 0.000000 -0.000000 0.000000 0.000000 0.000000 0.000000 0.000000 -0.000000 0.000000 0.000000 -0.000000 0.000000 0.000000 -0.000000 0.000000 0.000000 0.000000 -0.000000 -0.000000 0.000000 -0.000000 -0.000000 0.000000 -0.000000 -0.000000 0.000000 
-0.011181 41.908234 1.159497 -0.414390 0.152988 1.048424 -0.000000 -0.000000 -0.000000 -86.808282 -4.870168 11.087094 82.617087 6.658059 0.254018 5.745657 -7.107140 -5.738184 0.000000 0.000001 0.000000 -0.000000 -0.000000 -0.000000 -87.626054 6.518586 -7.499437 82.595941 -6.219172 -1.873757 6.761637 0.053316 6.637245 -0.000000 0.000000 -0.000000 -0.000000 0.000000 -0.000000 10.212729 -0.022263 -1.556414 0.247317 0.210143 -0.363243 0.247049 0.242483 -0.311429 -0.863845 -1.257150 0.466748 -9.376977 -4.249639 -5.115970 -0.000000 -0.000000 -0.000000 -0.000000 -0.000000 -0.000000 -0.000000 -0.000000 -0.000000 -0.000000 -0.000000 -0.000000 -0.000000 0.000000 -0.000000 -0.000000 -0.000000 -0.000000 -0.000000 0.000000 -0.000000 -0.000000 -0.000000 -0.000000 -0.000000 -0.000000 -0.000000 0.823222 -15.329304 -7.716560 4.455919 -21.455902 -54.700847 -0.000017 -61.301255 -0.000020 31.122365 4.160810 41.654383 7.239336 2.016989 20.046612 2.611793 19.816537 -24.507494 -0.000002 0.000001 0.000000 -0.214983 2.733548 -26.352492 0.412475 2.161194 -21.608031 -0.000000 0.000000 -0.000004 1.260137 7.277775 -16.156655 0.350261 1.997086 -19.893291 0.000001 -0.000000 0.000002 1.754433 9.708183 -14.032349 0.229569 1.625499 -16.076479 -0.000002 0.000002 -0.000002 1.966965 10.727151 -13.936878 0.189203 1.478288 -14.585673 -0.000000 0.000000 0.000001 -0.000001 -0.000000 -0.000000 3.130741 -4.188131 9.128582 -3.788747 37.492449 62.416680 -0.000006 54.701438 0.000027 38.426098 6.434181 -35.338753 -9.061921 -1.287267 -15.921439 3.457729 -24.287026 33.909980 -0.000003 0.000000 0.000003 2.928275 1.054566 13.023775 0.477730 -2.056453 26.153957 -0.000001 -0.000002 -0.000002 0.100440 -3.662344 2.284184 0.616272 -2.317161 29.783289 -0.000002 -0.000000 -0.000003 0.445625 -7.590681 4.231995 0.120850 -1.055143 13.066936 -0.000000 0.000000 0.000002 -11.183150 -10.282687 7.459227 0.034672 -0.567835 6.987824 0.000005 -0.000001 -0.000003 0.000004 -0.000003 0.000003 0.000001 0.000000 -0.000000 0.000001 -0.000000 -0.000000 0.000001 0.000000 -0.000000 0.000001 0.000000 -0.000000 0.000001 0.000000 -0.000000 0.000001 -0.000000 0.000000 0.000001 0.000000 -0.000000 0.000001 0.000000 -0.000000 0.000001 0.000000 -0.000000 0.000001 -0.000000 0.000000 -0.000000 -0.000000 -0.000000 -0.000000 -0.000000 -0.000000 -0.000000 -0.000000 -0.000000 
-0.015707 41.957275 1.134889 -0.957452 0.146327 1.140096 -0.000000 0.000000 -0.000000 -86.182794 -4.722660 11.113408 82.520577 6.625498 0.254008 5.749731 -7.107599 -5.698214 0.000000 0.000000 0.000000 0.000000 0.000001 -0.000000 -87.051362 6.476892 -7.618850 82.547877 -6.102450 -1.873752 6.750101 0.046061 6.525376 0.000000 -0.000000 -0.000000 -0.000000 0.000000 -0.000000 10.001981 -0.050068 -1.551930 0.733887 0.214279 -0.373963 0.733709 0.243699 -0.324692 -0.761073 -1.231934 0.475966 -10.032739 -4.165828 -4.919811 0.000000 -0.000000 -0.000000 0.000000 -0.000000 -0.000000 0.000000 -0.000000 -0.000000 0.000000 -0.000000 0.000000 0.000000 0.000000 -0.000000 0.000000 -0.000000 0.000000 0.000000 0.000000 -0.000000 0.000000 -0.000000 -0.000000 0.000000 -0.000000 -0.000000 0.826520 -15.600724 -7.588854 4.308935 -21.403928 -54.419771 -0.000025 -61.023751 -0.000042 30.015430 3.616500 41.129535 7.896445 2.237079 19.250659 2.502440 19.443491 -24.632785 0.000000 -0.000000 0.000000 -0.192907 2.666148 -25.764490 0.429197 2.202894 -22.047210 0.000002 0.000001 0.000002 1.219827 7.218230 -15.785021 0.372181 2.056620 -20.513203 0.000000 0.000001 -0.000003 1.710067 9.602931 -13.874537 0.255652 1.713408 -16.971927 -0.000001 0.000001 0.000001 1.888937 10.579984 -13.956014 0.212099 1.563641 -15.448809 -0.000002 -0.000001 0.000003 0.000002 0.000003 -0.000005 3.082111 -3.976042 9.440664 -3.601779 37.650766 61.027412 -0.000005 54.399018 0.000010 33.444267 7.545271 -34.227280 -8.709543 -0.934991 -14.170916 3.357935 -24.234213 33.129143 -0.000001 -0.000001 0.000001 2.897934 1.099064 12.492944 0.483285 -2.067724 26.308360 0.000000 -0.000002 -0.000000 0.095046 -3.659478 2.031249 0.649818 -2.374754 30.602676 0.000003 0.000000 -0.000002 0.434439 -7.534137 4.154912 0.135687 -1.117127 13.849626 0.000003 0.000001 -0.000003 -11.204838 -10.340620 7.762706 0.041011 -0.617375 7.601113 -0.000003 0.000001 0.000001 0.000001 -0.000001 -0.000002 0.000001 -0.000000 0.000000 0.000001 -0.000000 0.000000 0.000001 -0.000000 0.000000 0.000001 -0.000000 0.000000 0.000001 -0.000000 0.000000 0.000001 -0.000000 0.000000 0.000001 -0.000000 0.000000 0.000001 -0.000000 0.000000 0.000001 -0.000000 0.000000 0.000001 -0.000000 0.000000 -0.000000 0.000000 -0.000000 -0.000000 0.000000 -0.000000 -0.000000 0.000000 -0.000000 
-0.016757 42.010338 1.108368 -1.485040 0.144207 1.230080 0.000000 0.000000 -0.000000 -85.566889 -4.569977 11.129814 82.409279 6.597883 0.253989 5.761122 -7.107828 -5.649415 0.000000 -0.000000 0.000000 -0.000000 0.000000 0.000000 -86.480386 6.439460 -7.742970 82.483653 -5.988625 -1.873747 6.745228 0.039544 6.419056 0.000000 -0.000000 0.000000 0.000000 -0.000001 -0.000000 9.796463 -0.075733 -1.546158 1.248923 0.222378 -0.387395 1.248840 0.248826 -0.340488 -0.681235 -1.208184 0.490104 -10.819939 -4.081877 -4.732363 0.000000 -0.000000 -0.000000 0.000000 -0.000000 -0.000000 0.000000 -0.000000 -0.000000 0.000000 -0.000000 -0.000000 0.000000 -0.000000 -0.000000 0.000000 -0.000000 -0.000000 0.000000 -0.000000 -0.000000 0.000000 -0.000000 -0.000000 0.000000 -0.000000 -0.000000 0.832472 -15.979340 -7.489318 4.238261 -21.173441 -54.038896 0.000001 -61.236662 0.000009 28.124103 2.742010 40.412331 8.575136 2.451621 18.424809 2.389378 19.058765 -24.763353 0.000002 -0.000000 -0.000001 -0.169339 2.597107 -25.157455 0.446793 2.245844 -22.500627 0.000002 0.000003 0.000002 1.178812 7.156437 -15.401465 0.395502 2.117836 -21.153221 0.000002 0.000001 -0.000003 1.664865 9.493838 -13.712416 0.283994 1.803600 -17.895367 -0.000001 0.000001 -0.000001 1.808331 10.428077 -13.976049 0.237089 1.651355 -16.339453 0.000003 -0.000002 0.000003 -0.000002 -0.000003 0.000001 3.026189 -3.737179 9.731911 -3.408169 37.697593 59.557576 0.000006 54.333369 0.000000 28.528904 8.185330 -32.859873 -8.343283 -0.556687 -12.373136 3.258113 -24.179411 32.324359 0.000000 0.000000 -0.000000 2.867304 1.145877 11.945018 0.489052 -2.079340 26.467774 0.000001 -0.000003 -0.000000 0.089387 -3.656421 1.770186 0.685273 -2.433678 31.448045 0.000003 0.000000 -0.000004 0.423072 -7.475553 4.075728 0.151879 -1.180824 14.656905 -0.000002 0.000002 -0.000004 -11.227098 -10.400870 8.075997 0.048114 -0.668450 8.234242 -0.000001 0.000001 -0.000001 0.000001 0.000002 -0.000002 -0.000000 -0.000000 0.000000 -0.000000 0.000000 0.000000 -0.000000 -0.000000 0.000000 -0.000000 -0.000000 0.000000 -0.000000 -0.000000 0.000000 -0.000000 0.000000 0.000000 -0.000000 -0.000000 0.000000 -0.000000 -0.000000 0.000000 -0.000000 -0.000000 0.000000 -0.000000 0.000000 0.000000 0.000000 0.000000 -0.000000 0.000000 0.000000 -0.000000 0.000000 0.000000 -0.000000 
